<?xml version="1.0" encoding="iso-8859-1"?>
<!-- Uploaded to: SVG Repo, www.svgrepo.com, Generator: SVG Repo Mixer Tools -->
<svg fill="#000000" height="800px" width="800px" version="1.1" id="Layer_1" xmlns="http://www.w3.org/2000/svg" xmlns:xlink="http://www.w3.org/1999/xlink" 
	 viewBox="0 0 512.001 512.001" xml:space="preserve">
<g>
	<g>
		<path d="M256.001,0C114.841,0,0,114.841,0,256.001s114.841,256.001,256.001,256.001S512.001,397.16,512.001,256.001
			S397.16,0,256.001,0z M256.001,493.701c-131.069,0-237.702-106.631-237.702-237.7S124.932,18.299,256.001,18.299
			s237.702,106.632,237.702,237.702S387.068,493.701,256.001,493.701z"/>
	</g>
</g>
<g>
	<g>
		<path d="M141.343,186.873c-29.939,0-54.295,24.356-54.295,54.295c0,5.053,4.095,9.15,9.15,9.15c5.054,0,9.15-4.097,9.15-9.15
			c0-19.848,16.147-35.995,35.996-35.995c19.848,0,35.996,16.147,35.996,35.995c0,5.053,4.095,9.15,9.15,9.15s9.15-4.097,9.15-9.15
			C195.638,211.229,171.282,186.873,141.343,186.873z"/>
	</g>
</g>
<g>
	<g>
		<path d="M370.657,186.873c-29.939,0-54.295,24.356-54.295,54.295c0,5.053,4.097,9.15,9.15,9.15c5.054,0,9.15-4.097,9.15-9.15
			c0-19.848,16.147-35.995,35.996-35.995s35.996,16.147,35.996,35.995c0,5.053,4.095,9.15,9.15,9.15s9.15-4.097,9.15-9.15
			C424.951,211.229,400.595,186.873,370.657,186.873z"/>
	</g>
</g>
<g>
	<g>
		<path d="M427.15,337.361l-23.064-25.381c2.457-3.526,4.813-7.132,7.017-10.801c0.947-1.442,1.499-3.168,1.499-5.023
			c0-5.053-4.101-9.15-9.156-9.15c-3.219,0-6.201,1.692-7.854,4.454c-3.222,5.388-6.776,10.653-10.557,15.64
			c-16.231,21.357-36.708,37.791-60.865,48.846c-35.577,16.296-76.023,19.285-113.885,8.409
			c-39.387-11.311-72.823-37.198-94.15-72.891c-2.591-4.338-8.209-5.752-12.547-3.162c-4.338,2.592-5.753,8.209-3.162,12.547
			c23.718,39.696,60.94,68.496,104.807,81.095c16.624,4.775,33.693,7.143,50.708,7.141c23.807-0.001,47.495-4.653,69.665-13.826
			l27.055,29.782c9.921,10.909,23.572,16.451,37.272,16.451c12.08,0,24.196-4.311,33.818-13.053
			C444.276,389.789,445.802,357.903,427.15,337.361z M411.443,394.897c-13.062,11.872-33.36,10.904-45.24-2.162l-23.344-25.697
			c7.322-3.977,14.306-8.429,20.935-13.35l21.617,22.899c1.801,1.907,4.225,2.869,6.655,2.869c2.254,0,4.511-0.827,6.279-2.496
			c3.674-3.469,3.84-9.259,0.373-12.935l-20.789-22.024c5.197-4.777,10.135-9.879,14.795-15.314l20.879,22.975
			C425.475,362.737,424.505,383.028,411.443,394.897z"/>
	</g>
</g>
</svg>